<mxfile host="Electron" modified="2023-12-28T20:38:41.952Z" agent="Mozilla/5.0 (X11; Linux x86_64) AppleWebKit/537.36 (KHTML, like Gecko) draw.io/22.1.2 Chrome/114.0.5735.289 Electron/25.9.4 Safari/537.36" etag="qrleEg_lWb8KI7zB1ayD" version="22.1.2" type="device">
  <diagram name="Page-1" id="huMDgKUWXOF9C57tM5x9">
    <mxGraphModel dx="1173" dy="734" grid="1" gridSize="10" guides="1" tooltips="1" connect="1" arrows="1" fold="1" page="1" pageScale="1" pageWidth="850" pageHeight="1100" math="0" shadow="0">
      <root>
        <mxCell id="0" />
        <mxCell id="1" parent="0" />
        <mxCell id="e8fLiRB-nQ0mjzcZ-qvx-2" value="Power Supply" style="rounded=0;whiteSpace=wrap;html=1;" vertex="1" parent="1">
          <mxGeometry x="365" y="220" width="120" height="60" as="geometry" />
        </mxCell>
        <mxCell id="e8fLiRB-nQ0mjzcZ-qvx-3" value="GPS Module" style="rounded=0;whiteSpace=wrap;html=1;" vertex="1" parent="1">
          <mxGeometry x="160" y="350" width="120" height="60" as="geometry" />
        </mxCell>
        <mxCell id="e8fLiRB-nQ0mjzcZ-qvx-4" value="GSM Module" style="rounded=0;whiteSpace=wrap;html=1;" vertex="1" parent="1">
          <mxGeometry x="160" y="420" width="120" height="60" as="geometry" />
        </mxCell>
        <mxCell id="e8fLiRB-nQ0mjzcZ-qvx-5" value="Motor Driver" style="rounded=0;whiteSpace=wrap;html=1;" vertex="1" parent="1">
          <mxGeometry x="160" y="490" width="120" height="60" as="geometry" />
        </mxCell>
        <mxCell id="e8fLiRB-nQ0mjzcZ-qvx-6" value="Buzzer" style="rounded=0;whiteSpace=wrap;html=1;" vertex="1" parent="1">
          <mxGeometry x="160" y="560" width="120" height="60" as="geometry" />
        </mxCell>
        <mxCell id="e8fLiRB-nQ0mjzcZ-qvx-7" value="Flame Sensor" style="rounded=0;whiteSpace=wrap;html=1;" vertex="1" parent="1">
          <mxGeometry x="570" y="350" width="120" height="60" as="geometry" />
        </mxCell>
        <mxCell id="e8fLiRB-nQ0mjzcZ-qvx-8" value="Ultrasonic Sensor" style="rounded=0;whiteSpace=wrap;html=1;" vertex="1" parent="1">
          <mxGeometry x="570" y="420" width="120" height="60" as="geometry" />
        </mxCell>
        <mxCell id="e8fLiRB-nQ0mjzcZ-qvx-9" value="Gyro Sensor" style="rounded=0;whiteSpace=wrap;html=1;" vertex="1" parent="1">
          <mxGeometry x="570" y="490" width="120" height="60" as="geometry" />
        </mxCell>
        <mxCell id="e8fLiRB-nQ0mjzcZ-qvx-10" value="LED" style="rounded=0;whiteSpace=wrap;html=1;" vertex="1" parent="1">
          <mxGeometry x="570" y="560" width="120" height="60" as="geometry" />
        </mxCell>
        <mxCell id="e8fLiRB-nQ0mjzcZ-qvx-13" value="Microcontroller Unit" style="rounded=0;whiteSpace=wrap;html=1;flipH=1;flipV=1;direction=south;" vertex="1" parent="1">
          <mxGeometry x="340" y="330" width="170" height="320" as="geometry" />
        </mxCell>
        <mxCell id="e8fLiRB-nQ0mjzcZ-qvx-14" value="" style="shape=flexArrow;endArrow=classic;html=1;rounded=0;exitX=1;exitY=0.5;exitDx=0;exitDy=0;entryX=0.841;entryY=-0.017;entryDx=0;entryDy=0;entryPerimeter=0;" edge="1" parent="1" source="e8fLiRB-nQ0mjzcZ-qvx-3" target="e8fLiRB-nQ0mjzcZ-qvx-13">
          <mxGeometry width="50" height="50" relative="1" as="geometry">
            <mxPoint x="280" y="390" as="sourcePoint" />
            <mxPoint x="330" y="340" as="targetPoint" />
          </mxGeometry>
        </mxCell>
        <mxCell id="e8fLiRB-nQ0mjzcZ-qvx-15" value="" style="shape=flexArrow;endArrow=classic;html=1;rounded=0;exitX=1;exitY=0.5;exitDx=0;exitDy=0;entryX=0.841;entryY=-0.017;entryDx=0;entryDy=0;entryPerimeter=0;" edge="1" parent="1">
          <mxGeometry width="50" height="50" relative="1" as="geometry">
            <mxPoint x="337" y="450.5" as="sourcePoint" />
            <mxPoint x="280" y="449.5" as="targetPoint" />
          </mxGeometry>
        </mxCell>
        <mxCell id="e8fLiRB-nQ0mjzcZ-qvx-16" value="" style="shape=flexArrow;endArrow=classic;html=1;rounded=0;exitX=1;exitY=0.5;exitDx=0;exitDy=0;entryX=0.841;entryY=-0.017;entryDx=0;entryDy=0;entryPerimeter=0;" edge="1" parent="1">
          <mxGeometry width="50" height="50" relative="1" as="geometry">
            <mxPoint x="280" y="519.5" as="sourcePoint" />
            <mxPoint x="337" y="520.5" as="targetPoint" />
          </mxGeometry>
        </mxCell>
        <mxCell id="e8fLiRB-nQ0mjzcZ-qvx-17" value="" style="shape=flexArrow;endArrow=classic;html=1;rounded=0;exitX=1;exitY=0.5;exitDx=0;exitDy=0;entryX=0.841;entryY=-0.017;entryDx=0;entryDy=0;entryPerimeter=0;" edge="1" parent="1">
          <mxGeometry width="50" height="50" relative="1" as="geometry">
            <mxPoint x="340" y="590.5" as="sourcePoint" />
            <mxPoint x="283" y="589.5" as="targetPoint" />
          </mxGeometry>
        </mxCell>
        <mxCell id="e8fLiRB-nQ0mjzcZ-qvx-18" value="" style="shape=flexArrow;endArrow=classic;html=1;rounded=0;exitX=0.5;exitY=1;exitDx=0;exitDy=0;" edge="1" parent="1" source="e8fLiRB-nQ0mjzcZ-qvx-2">
          <mxGeometry width="50" height="50" relative="1" as="geometry">
            <mxPoint x="425" y="290" as="sourcePoint" />
            <mxPoint x="425" y="330" as="targetPoint" />
          </mxGeometry>
        </mxCell>
        <mxCell id="e8fLiRB-nQ0mjzcZ-qvx-19" value="" style="shape=flexArrow;endArrow=classic;html=1;rounded=0;exitX=1;exitY=0.5;exitDx=0;exitDy=0;entryX=0.841;entryY=-0.017;entryDx=0;entryDy=0;entryPerimeter=0;" edge="1" parent="1">
          <mxGeometry width="50" height="50" relative="1" as="geometry">
            <mxPoint x="570" y="380.5" as="sourcePoint" />
            <mxPoint x="513" y="379.5" as="targetPoint" />
          </mxGeometry>
        </mxCell>
        <mxCell id="e8fLiRB-nQ0mjzcZ-qvx-20" value="" style="shape=flexArrow;endArrow=classic;html=1;rounded=0;exitX=1;exitY=0.5;exitDx=0;exitDy=0;entryX=0.841;entryY=-0.017;entryDx=0;entryDy=0;entryPerimeter=0;" edge="1" parent="1">
          <mxGeometry width="50" height="50" relative="1" as="geometry">
            <mxPoint x="570" y="450.5" as="sourcePoint" />
            <mxPoint x="513" y="449.5" as="targetPoint" />
          </mxGeometry>
        </mxCell>
        <mxCell id="e8fLiRB-nQ0mjzcZ-qvx-21" value="" style="shape=flexArrow;endArrow=classic;html=1;rounded=0;exitX=1;exitY=0.5;exitDx=0;exitDy=0;entryX=0.841;entryY=-0.017;entryDx=0;entryDy=0;entryPerimeter=0;" edge="1" parent="1">
          <mxGeometry width="50" height="50" relative="1" as="geometry">
            <mxPoint x="570" y="520.5" as="sourcePoint" />
            <mxPoint x="513" y="519.5" as="targetPoint" />
          </mxGeometry>
        </mxCell>
        <mxCell id="e8fLiRB-nQ0mjzcZ-qvx-22" value="" style="shape=flexArrow;endArrow=classic;html=1;rounded=0;exitX=1;exitY=0.5;exitDx=0;exitDy=0;entryX=0.841;entryY=-0.017;entryDx=0;entryDy=0;entryPerimeter=0;" edge="1" parent="1">
          <mxGeometry width="50" height="50" relative="1" as="geometry">
            <mxPoint x="510" y="589.5" as="sourcePoint" />
            <mxPoint x="567" y="590.5" as="targetPoint" />
          </mxGeometry>
        </mxCell>
        <mxCell id="e8fLiRB-nQ0mjzcZ-qvx-23" value="Block Diagram" style="text;html=1;align=center;verticalAlign=middle;resizable=0;points=[];autosize=1;strokeColor=none;fillColor=none;" vertex="1" parent="1">
          <mxGeometry x="375" y="700" width="100" height="30" as="geometry" />
        </mxCell>
      </root>
    </mxGraphModel>
  </diagram>
</mxfile>
